<?xml version="1.0" encoding="UTF-8" standalone="no"?>
<!DOCTYPE svg PUBLIC "-//W3C//DTD SVG 1.1//EN" "http://www.w3.org/Graphics/SVG/1.1/DTD/svg11.dtd">
<svg width="100%" height="100%" viewBox="0 0 5248 1397" version="1.1" xmlns="http://www.w3.org/2000/svg" xmlns:xlink="http://www.w3.org/1999/xlink" xml:space="preserve" xmlns:serif="http://www.serif.com/" style="fill-rule:evenodd;clip-rule:evenodd;stroke-miterlimit:1.41421;">
    <g transform="matrix(111.673,0,0,29.7208,-72028.2,-50732)">
        <rect x="644.992" y="1706.95" width="46.986" height="46.986" style="fill:rgb(19,95,171);"/>
    </g>
    <g transform="matrix(1,0,0,1,-3.60844,0)">
        <clipPath id="_clip1">
            <rect x="3.608" y="169.495" width="5247.04" height="1057.9"/>
        </clipPath>
        <g clip-path="url(#_clip1)">
            <g transform="matrix(4.16667,0,0,4.16667,3.60844,166.978)">
                <path d="M0,89.767L149.395,89.767C153.238,89.767 156.383,86.62 156.383,82.776L156.383,7.595C156.383,3.749 159.529,0.604 163.373,0.604L238.554,0.604C242.398,0.604 245.543,3.749 245.543,7.595L245.543,127.356C245.543,131.2 248.689,134.346 252.533,134.346L386.447,134.346C390.293,134.346 393.438,131.2 393.438,127.356L393.438,82.602C393.438,78.759 396.582,75.614 400.426,75.614L624.207,75.614C628.05,75.614 631.197,78.759 631.197,82.602L631.197,127.356C631.197,131.2 634.343,134.346 638.187,134.346L699.216,134.346C703.06,134.346 706.207,131.2 706.207,127.356L706.207,96.757C706.207,92.911 709.353,89.767 713.195,89.767L788.376,89.767C792.22,89.767 795.365,92.911 795.365,96.757L795.365,113.204C795.365,117.049 798.511,120.194 802.357,120.194L1322.46,120.194C1326.3,120.194 1329.45,117.049 1329.45,113.204L1329.45,7.595C1329.45,3.749 1332.59,0.604 1336.44,0.604L1507.9,0.604C1511.74,0.604 1514.89,3.749 1514.89,7.595L1514.89,96.448C1514.89,100.292 1518.03,103.438 1521.88,103.438L1782.5,103.438C1786.34,103.438 1789.49,100.292 1789.49,96.448L1789.49,28.405C1789.49,24.561 1792.63,21.415 1796.47,21.415L2119.97,21.415" style="fill:none;stroke:white;stroke-width:1px;"/>
            </g>
            <g transform="matrix(4.16667,0,0,4.16667,3.60844,166.978)">
                <path d="M0,209.354L193.975,209.354C197.818,209.354 200.963,212.499 200.963,216.342L200.963,237.958C200.963,241.801 204.109,244.948 207.953,244.948L713.642,244.948C717.486,244.948 720.632,241.801 720.632,237.958L720.632,216.342C720.632,212.499 723.777,209.354 727.621,209.354L1691.87,209.354C1695.71,209.354 1698.86,212.499 1698.86,216.342L1698.86,238.311C1698.86,242.155 1702,245.301 1705.85,245.301L2119.97,245.301" style="fill:none;stroke:white;stroke-width:1px;"/>
            </g>
            <g transform="matrix(4.16667,0,0,4.16667,3.60844,166.978)">
                <path d="M0,45.186L327.715,45.186C331.559,45.186 334.705,48.331 334.705,52.175L334.705,202.362C334.705,206.206 337.85,209.352 341.695,209.352L653.785,209.352C657.628,209.352 660.775,206.206 660.775,202.362L660.775,82.602C660.775,78.759 663.919,75.614 667.763,75.614L982.548,75.614C986.394,75.614 989.541,78.759 989.541,82.602L989.541,246.944C989.541,250.788 992.685,253.934 996.529,253.934L1213.9,253.934C1217.75,253.934 1220.89,250.788 1220.89,246.944L1220.89,52.175C1220.89,48.331 1224.04,45.186 1227.88,45.186L1384.15,45.186C1388,45.186 1391.14,48.331 1391.14,52.175L1391.14,224.182C1391.14,228.026 1394.29,231.17 1398.13,231.17L1714.74,231.17C1718.58,231.17 1721.73,228.026 1721.73,224.182L1721.73,82.071C1721.73,78.229 1724.87,75.081 1728.72,75.081L1834.2,75.081C1838.05,75.081 1841.19,78.229 1841.19,82.071L1841.19,112.497C1841.19,116.34 1844.34,119.487 1848.19,119.487L2119.97,119.487" style="fill:none;stroke:white;stroke-width:1px;"/>
            </g>
            <g transform="matrix(4.16667,0,0,4.16667,3.60844,166.978)">
                <path d="M0,75.614L104.813,75.614C108.658,75.614 111.804,78.759 111.804,82.602L111.804,157.784C111.804,161.629 114.949,164.774 118.793,164.774L431.027,164.774C434.871,164.774 438.018,161.629 438.018,157.784L438.018,52.175C438.018,48.331 441.162,45.185 445.006,45.185L668.789,45.185C672.632,45.185 675.777,48.331 675.777,52.175L675.777,157.784C675.777,161.629 678.923,164.774 682.767,164.774L1056.99,164.774C1060.83,164.774 1063.98,161.629 1063.98,157.784L1063.98,96.757C1063.98,92.913 1067.13,89.767 1070.97,89.767L1466.89,89.767C1470.73,89.767 1473.88,92.913 1473.88,96.757L1473.88,120.53C1473.88,124.374 1477.02,127.518 1480.87,127.518L1623.8,127.518C1627.65,127.518 1630.79,124.374 1630.79,120.53L1630.79,50.177C1630.79,46.335 1633.94,43.188 1637.78,43.188L1885.92,43.188C1889.76,43.188 1892.91,46.335 1892.91,50.177L1892.91,182.038C1892.91,185.881 1896.05,189.026 1899.9,189.026L2119.97,189.026" style="fill:none;stroke:white;stroke-width:1px;"/>
            </g>
            <g transform="matrix(4.16667,0,0,4.16667,3.60844,166.978)">
                <path d="M0,224.006L283.135,224.006C286.979,224.006 290.125,220.86 290.125,217.016L290.125,96.755C290.125,92.911 293.271,89.767 297.113,89.767L550.615,89.767C554.46,89.767 557.605,92.911 557.605,96.755L557.605,217.084C557.605,220.928 560.75,224.073 564.593,224.073L922.115,224.073C925.958,224.073 929.105,220.928 929.105,217.084L929.105,38.024C929.105,34.181 932.251,31.034 936.095,31.034L1258.27,31.034C1262.11,31.034 1265.26,34.181 1265.26,38.024L1265.26,159.821C1265.26,163.665 1268.4,166.811 1272.25,166.811L1361.69,166.811C1365.53,166.811 1368.68,163.665 1368.68,159.821L1368.68,82.071C1368.68,78.229 1371.82,75.083 1375.67,75.083L1573.87,75.083C1577.72,75.083 1580.86,78.229 1580.86,82.071L1580.86,247.51C1580.86,251.354 1584.01,254.5 1587.85,254.5L1809.24,254.5C1813.09,254.5 1816.23,251.354 1816.23,247.51L1816.23,171.764C1816.23,167.918 1819.38,164.774 1823.22,164.774L2119.97,164.774" style="fill:none;stroke:white;stroke-width:1px;"/>
            </g>
        </g>
    </g>
</svg>
