<?xml version="1.0" encoding="utf-8"?>
<!-- Generator: Adobe Illustrator 22.1.0, SVG Export Plug-In . SVG Version: 6.00 Build 0)  -->
<svg version="1.1" id="Lager_1" xmlns:serif="http://www.serif.com/"
	 xmlns="http://www.w3.org/2000/svg" xmlns:xlink="http://www.w3.org/1999/xlink" x="0px" y="0px" viewBox="0 0 841.6 90.1"
	 style="enable-background:new 0 0 841.6 90.1;" xml:space="preserve">
<style type="text/css">
	.st0{fill:#FFFFFF;}
</style>
<path class="st0" d="M325,61.7v2.4c0,8.9,1.9,12.4,7.5,14.3c5.2,1.7,15,2.5,30.8,2.5c34.5,0,40.8-2.6,40.8-17.3
	c0-7.4-2.2-10.7-8.2-12.4c-5.8-1.6-6.4-1.6-45.8-1.9c-16-0.1-22.9-1.3-28.3-4.9c-5.3-3.6-7.4-8.5-7.4-17.2
	c0-13.2,4.8-20.8,15.2-23.8C337.2,1.1,348.8,0,367,0c20.4,0,30.8,1.5,36.9,5.3c6.5,4,8.5,8.6,8.9,20.9h-10.3
	c-0.1-7-1.3-10.2-4.2-12.4c-4.1-3.2-13.2-4.5-31.1-4.5c-34.8,0-41.6,2.8-41.6,16.9c0,6.1,1.7,9.5,5.4,11.2c4.6,2.1,8.6,2.4,33.6,2.5
	c28.1,0.1,34.1,0.7,40.5,3.7c7.1,3.4,10.1,9.4,10.1,20.4c0,12.2-4.1,19.5-12.8,22.8c-6.5,2.4-16.5,3.3-36.9,3.3
	c-21.4,0-31.5-0.9-38.6-3.3c-7.9-2.8-12.3-9.5-12.3-19.1v-6.1H325z"/>
<path class="st0" d="M496.1,45.7c19.1,0,23.3-3.3,23.3-18c0-14.3-4.2-17.9-21.2-17.9h-57.3v35.9H496.1z M430.3,0.9h71.2
	c13.9,0,19.3,1.3,23.6,5.8c3.8,4,5.3,9.7,5.3,20.2c0,13-1.7,18.4-7,22.6c-4.4,3.4-9.9,4.9-19.5,4.9h-63v34.7h-10.6V0.9z"/>
<rect x="545.2" y="0.9" class="st0" width="3.6" height="88.3"/>
<path class="st0" d="M259.1,0.9h-15l-52,88.3h11.8l47.8-80.9l47.8,80.9h11.7L259.1,0.9z"/>
<path class="st0" d="M214.6,0.9l-47.8,80.9L119,0.9h-11.7h-0.1L59.5,81.8L11.7,0.9H0l52,88.3h15l46.2-78.4l46.2,78.4h15l52-88.3
	H214.6z"/>
<path class="st0" d="M583.6,1L580,25.8h-3.3l-2.7-16.1h-0.1l-2.7,16.1h-3.3L564.1,1h3.8l1.8,15.8h0.1L572.5,1h2.7l2.9,16.1h0.1
	L579.9,1H583.6z"/>
<path class="st0" d="M592,17.1l-1.7-9h-0.1l-1.7,9H592z M583.2,25.8L588.8,1h3l5.5,24.8h-3.6l-1-5.3h-4.8l-1,5.3H583.2z"/>
<path class="st0" d="M599,25.8V1h3.6v21.3h7v3.6H599z"/>
<path class="st0" d="M611.9,25.8V1h3.6v21.3h7v3.6H611.9z"/>
<path class="st0" d="M624.8,25.8V1h10.6v3.3h-7v7.3h6.1v3.3h-6.1v7.3h7v3.6H624.8z"/>
<path class="st0" d="M637.6,25.8V1h3.4l5.4,15h0.1V1h3.6v24.8h-3.3l-5.4-14.9h-0.1v14.9H637.6z"/>
<path class="st0" d="M656.8,14.3v8h1.5c0.7,0,1.3-0.1,1.7-0.3c0.4-0.2,0.7-0.5,0.9-0.9c0.2-0.4,0.3-0.8,0.4-1.3
	c0-0.5,0.1-1.1,0.1-1.7c0-0.6,0-1.2-0.1-1.6c-0.1-0.5-0.2-0.9-0.4-1.2c-0.2-0.3-0.5-0.6-0.9-0.7c-0.4-0.2-0.9-0.2-1.6-0.2H656.8z
	 M656.8,4.3v6.8h1.6c1.2,0,2-0.3,2.4-0.9c0.4-0.6,0.6-1.5,0.6-2.6c0-1.1-0.2-2-0.7-2.5c-0.5-0.6-1.3-0.8-2.5-0.8H656.8z M653.2,25.8
	V1h5.2c1.1,0,2.1,0.2,2.9,0.5c0.8,0.3,1.5,0.8,2,1.4c0.5,0.6,0.9,1.2,1.1,2c0.2,0.8,0.3,1.5,0.3,2.4v0.9c0,0.7-0.1,1.2-0.2,1.7
	c-0.1,0.5-0.3,0.9-0.5,1.2c-0.4,0.7-1,1.2-1.8,1.7c0.8,0.4,1.5,1,1.8,1.7c0.4,0.8,0.6,1.8,0.6,3.1V19c0,2.2-0.5,3.9-1.6,5
	s-2.8,1.7-5.1,1.7H653.2z"/>
<path class="st0" d="M668.1,25.8V1h10.6v3.3h-7v7.3h6.1v3.3h-6.1v7.3h7v3.6H668.1z"/>
<path class="st0" d="M684.5,4.3V12h2c0.6,0,1.1-0.1,1.5-0.3c0.4-0.2,0.7-0.4,0.9-0.7c0.2-0.3,0.3-0.7,0.4-1.2c0.1-0.5,0.1-1,0.1-1.7
	s0-1.2-0.1-1.7c-0.1-0.5-0.2-0.9-0.4-1.2c-0.4-0.7-1.3-1-2.5-1H684.5z M681,25.8V1h5.7c4.2,0,6.3,2.4,6.3,7.3c0,1.5-0.2,2.7-0.7,3.7
	c-0.5,1-1.2,1.8-2.4,2.5l3.8,11.3H690l-3.3-10.6h-2.1v10.6H681z"/>
<path class="st0" d="M695.6,6.8c0-1,0.2-1.9,0.5-2.7c0.3-0.8,0.8-1.4,1.4-1.9c0.6-0.5,1.2-0.9,1.9-1.1c0.7-0.3,1.4-0.4,2.1-0.4
	c0.7,0,1.4,0.1,2.1,0.4c0.7,0.3,1.4,0.6,1.9,1.1c0.6,0.5,1,1.2,1.4,1.9c0.3,0.8,0.5,1.7,0.5,2.7v1.3H704V6.8c0-0.9-0.2-1.5-0.7-1.9
	c-0.5-0.4-1-0.6-1.7-0.6c-0.7,0-1.2,0.2-1.7,0.6c-0.5,0.4-0.7,1-0.7,1.9v13.1c0,0.9,0.2,1.5,0.7,1.9c0.5,0.4,1,0.6,1.7,0.6
	c0.7,0,1.2-0.2,1.7-0.6c0.5-0.4,0.7-1,0.7-1.9v-4.7h-2.8v-3.1h6.4v7.8c0,1-0.2,1.9-0.5,2.7c-0.3,0.7-0.8,1.4-1.4,1.8
	c-0.6,0.5-1.2,0.9-1.9,1.2c-0.7,0.3-1.4,0.4-2.1,0.4c-0.7,0-1.4-0.1-2.1-0.4c-0.7-0.3-1.3-0.6-1.9-1.2c-0.6-0.5-1-1.1-1.4-1.8
	c-0.3-0.7-0.5-1.6-0.5-2.7V6.8z"/>
<path class="st0" d="M724.4,17.1l-1.7-9h-0.1l-1.7,9H724.4z M715.6,25.8L721.1,1h3l5.5,24.8h-3.6l-1-5.3h-4.8l-1,5.3H715.6z"/>
<rect x="731.5" y="1" class="st0" width="3.6" height="24.8"/>
<path class="st0" d="M738.3,28.4v-6.1h3.6v3.6L738.3,28.4z"/>
<path class="st0" d="M572.4,48.8l-1.7-9h-0.1l-1.7,9H572.4z M563.6,57.5l5.5-24.8h3l5.5,24.8h-3.6l-1-5.3h-4.8l-1,5.3H563.6z"/>
<path class="st0" d="M590.9,32.6v19.3c0,0.8-0.1,1.6-0.4,2.2c-0.3,0.7-0.7,1.3-1.2,1.8c-0.5,0.5-1.2,1-1.8,1.3
	c-0.7,0.3-1.4,0.5-2.2,0.5c-0.8,0-1.5-0.2-2.2-0.5c-0.7-0.3-1.3-0.7-1.8-1.3c-0.5-0.5-1-1.1-1.3-1.8c-0.3-0.7-0.5-1.4-0.5-2.2V32.6
	h3.6v18.9c0,0.9,0.2,1.5,0.6,2c0.4,0.4,0.9,0.6,1.6,0.6c0.6,0,1.2-0.2,1.6-0.6c0.4-0.4,0.6-1.1,0.6-2V32.6H590.9z"/>
<path class="st0" d="M596.6,57.5V36h-4.1v-3.3h11.8V36h-4.1v21.5H596.6z"/>
<path class="st0" d="M608.8,51.6c0,0.9,0.2,1.5,0.7,1.9c0.5,0.4,1,0.6,1.7,0.6s1.2-0.2,1.7-0.6c0.5-0.4,0.7-1,0.7-1.9V38.5
	c0-0.9-0.2-1.5-0.7-1.9c-0.5-0.4-1-0.6-1.7-0.6s-1.2,0.2-1.7,0.6c-0.5,0.4-0.7,1-0.7,1.9V51.6z M605.2,38.5c0-1,0.2-1.9,0.5-2.7
	c0.3-0.8,0.8-1.4,1.4-1.9c0.6-0.5,1.2-0.9,1.9-1.1c0.7-0.3,1.4-0.4,2.1-0.4c0.7,0,1.4,0.1,2.1,0.4c0.7,0.3,1.4,0.6,1.9,1.1
	c0.6,0.5,1,1.2,1.4,1.9c0.3,0.8,0.5,1.7,0.5,2.7v13.1c0,1-0.2,1.9-0.5,2.7c-0.3,0.7-0.8,1.4-1.4,1.8c-0.6,0.5-1.2,0.9-1.9,1.2
	c-0.7,0.3-1.4,0.4-2.1,0.4c-0.7,0-1.4-0.1-2.1-0.4c-0.7-0.3-1.3-0.6-1.9-1.2c-0.6-0.5-1-1.1-1.4-1.8c-0.3-0.7-0.5-1.6-0.5-2.7V38.5z
	"/>
<path class="st0" d="M620.1,57.5V32.6h3.4l5.4,15h0.1v-15h3.6v24.8h-3.3l-5.4-14.9h-0.1v14.9H620.1z"/>
<path class="st0" d="M639.1,51.6c0,0.9,0.2,1.5,0.7,1.9c0.5,0.4,1,0.6,1.7,0.6s1.2-0.2,1.7-0.6c0.5-0.4,0.7-1,0.7-1.9V38.5
	c0-0.9-0.2-1.5-0.7-1.9c-0.5-0.4-1-0.6-1.7-0.6s-1.2,0.2-1.7,0.6c-0.5,0.4-0.7,1-0.7,1.9V51.6z M635.5,38.5c0-1,0.2-1.9,0.5-2.7
	c0.3-0.8,0.8-1.4,1.4-1.9c0.6-0.5,1.2-0.9,1.9-1.1c0.7-0.3,1.4-0.4,2.1-0.4c0.7,0,1.4,0.1,2.1,0.4c0.7,0.3,1.4,0.6,1.9,1.1
	c0.6,0.5,1,1.2,1.4,1.9c0.3,0.8,0.5,1.7,0.5,2.7v13.1c0,1-0.2,1.9-0.5,2.7c-0.3,0.7-0.8,1.4-1.4,1.8c-0.6,0.5-1.2,0.9-1.9,1.2
	c-0.7,0.3-1.4,0.4-2.1,0.4c-0.7,0-1.4-0.1-2.1-0.4c-0.7-0.3-1.3-0.6-1.9-1.2c-0.6-0.5-1-1.1-1.4-1.8c-0.3-0.7-0.5-1.6-0.5-2.7V38.5z
	"/>
<path class="st0" d="M650.6,57.5V32.6h3.4l4.6,13.1h0.1l4.5-13.1h3.5v24.8h-3.6V42.4H663L659.5,53h-1.8l-3.5-10.7h-0.1v15.1H650.6z"
	/>
<path class="st0" d="M673.3,51.6c0,0.9,0.2,1.5,0.7,1.9c0.5,0.4,1,0.6,1.7,0.6c0.7,0,1.2-0.2,1.7-0.6c0.5-0.4,0.7-1,0.7-1.9V38.5
	c0-0.9-0.2-1.5-0.7-1.9c-0.5-0.4-1-0.6-1.7-0.6c-0.7,0-1.2,0.2-1.7,0.6c-0.5,0.4-0.7,1-0.7,1.9V51.6z M669.8,38.5
	c0-1,0.2-1.9,0.5-2.7c0.3-0.8,0.8-1.4,1.4-1.9c0.6-0.5,1.2-0.9,1.9-1.1c0.7-0.3,1.4-0.4,2.1-0.4s1.4,0.1,2.1,0.4
	c0.7,0.3,1.4,0.6,1.9,1.1c0.6,0.5,1,1.2,1.4,1.9c0.3,0.8,0.5,1.7,0.5,2.7v13.1c0,1-0.2,1.9-0.5,2.7c-0.3,0.7-0.8,1.4-1.4,1.8
	c-0.6,0.5-1.2,0.9-1.9,1.2c-0.7,0.3-1.4,0.4-2.1,0.4s-1.4-0.1-2.1-0.4c-0.7-0.3-1.3-0.6-1.9-1.2c-0.6-0.5-1-1.1-1.4-1.8
	c-0.3-0.7-0.5-1.6-0.5-2.7V38.5z"/>
<path class="st0" d="M696.4,32.6v19.3c0,0.8-0.1,1.6-0.4,2.2c-0.3,0.7-0.7,1.3-1.2,1.8c-0.5,0.5-1.2,1-1.8,1.3
	c-0.7,0.3-1.4,0.5-2.2,0.5c-0.8,0-1.5-0.2-2.2-0.5c-0.7-0.3-1.3-0.7-1.8-1.3c-0.5-0.5-1-1.1-1.3-1.8c-0.3-0.7-0.5-1.4-0.5-2.2V32.6
	h3.6v18.9c0,0.9,0.2,1.5,0.6,2c0.4,0.4,0.9,0.6,1.6,0.6c0.6,0,1.2-0.2,1.6-0.6c0.4-0.4,0.6-1.1,0.6-2V32.6H696.4z"/>
<path class="st0" d="M711.2,39.8h-3.6V39c0-0.8-0.2-1.5-0.6-2.1c-0.4-0.6-1-0.9-1.9-0.9c-0.5,0-0.9,0.1-1.2,0.3
	c-0.3,0.2-0.5,0.4-0.7,0.7c-0.2,0.3-0.3,0.6-0.4,1c-0.1,0.4-0.1,0.8-0.1,1.2c0,0.5,0,0.9,0.1,1.2c0,0.3,0.1,0.6,0.3,0.9
	c0.1,0.3,0.3,0.5,0.6,0.7c0.3,0.2,0.6,0.4,1.1,0.6l2.7,1.1c0.8,0.3,1.4,0.7,1.9,1.1c0.5,0.4,0.9,0.9,1.2,1.4
	c0.3,0.6,0.4,1.2,0.5,1.9c0.1,0.7,0.1,1.5,0.1,2.4c0,1-0.1,2-0.3,2.9c-0.2,0.9-0.5,1.7-1,2.3c-0.5,0.7-1.1,1.2-1.9,1.5
	c-0.8,0.4-1.8,0.6-2.9,0.6c-0.9,0-1.7-0.2-2.4-0.5c-0.7-0.3-1.4-0.7-1.9-1.3c-0.5-0.5-1-1.2-1.3-1.9c-0.3-0.7-0.5-1.5-0.5-2.3v-1.3
	h3.6v1.1c0,0.7,0.2,1.2,0.6,1.8c0.4,0.5,1,0.8,1.9,0.8c0.6,0,1.1-0.1,1.4-0.3c0.3-0.2,0.6-0.4,0.8-0.8c0.2-0.3,0.3-0.7,0.3-1.2
	c0-0.5,0.1-1,0.1-1.5c0-0.7,0-1.2-0.1-1.6c0-0.4-0.1-0.8-0.3-1c-0.2-0.3-0.4-0.5-0.6-0.6c-0.3-0.2-0.6-0.3-1.1-0.5l-2.5-1
	c-1.5-0.6-2.6-1.5-3.1-2.5c-0.5-1-0.8-2.3-0.8-3.9c0-0.9,0.1-1.8,0.4-2.7c0.3-0.8,0.6-1.6,1.2-2.2c0.5-0.6,1.1-1.1,1.9-1.4
	c0.8-0.4,1.7-0.5,2.7-0.5c0.9,0,1.7,0.2,2.4,0.5s1.4,0.8,1.9,1.3c1.1,1.1,1.6,2.4,1.6,3.8V39.8z"/>
<path class="st0" d="M731.9,39.8h-3.6V39c0-0.8-0.2-1.5-0.6-2.1c-0.4-0.6-1-0.9-1.9-0.9c-0.5,0-0.9,0.1-1.2,0.3
	c-0.3,0.2-0.5,0.4-0.7,0.7c-0.2,0.3-0.3,0.6-0.4,1c-0.1,0.4-0.1,0.8-0.1,1.2c0,0.5,0,0.9,0.1,1.2c0,0.3,0.1,0.6,0.3,0.9
	c0.1,0.3,0.3,0.5,0.6,0.7c0.3,0.2,0.6,0.4,1.1,0.6l2.7,1.1c0.8,0.3,1.4,0.7,1.9,1.1c0.5,0.4,0.9,0.9,1.2,1.4
	c0.3,0.6,0.4,1.2,0.5,1.9c0.1,0.7,0.1,1.5,0.1,2.4c0,1-0.1,2-0.3,2.9c-0.2,0.9-0.5,1.7-1,2.3c-0.5,0.7-1.1,1.2-1.9,1.5
	c-0.8,0.4-1.8,0.6-2.9,0.6c-0.9,0-1.7-0.2-2.4-0.5c-0.7-0.3-1.4-0.7-1.9-1.3c-0.5-0.5-1-1.2-1.3-1.9c-0.3-0.7-0.5-1.5-0.5-2.3v-1.3
	h3.6v1.1c0,0.7,0.2,1.2,0.6,1.8c0.4,0.5,1,0.8,1.9,0.8c0.6,0,1.1-0.1,1.4-0.3c0.3-0.2,0.6-0.4,0.8-0.8c0.2-0.3,0.3-0.7,0.3-1.2
	c0-0.5,0.1-1,0.1-1.5c0-0.7,0-1.2-0.1-1.6c0-0.4-0.1-0.8-0.3-1c-0.2-0.3-0.4-0.5-0.6-0.6c-0.3-0.2-0.6-0.3-1.1-0.5l-2.5-1
	c-1.5-0.6-2.6-1.5-3.1-2.5c-0.5-1-0.8-2.3-0.8-3.9c0-0.9,0.1-1.8,0.4-2.7c0.3-0.8,0.6-1.6,1.2-2.2c0.5-0.6,1.1-1.1,1.9-1.4
	c0.8-0.4,1.7-0.5,2.7-0.5c0.9,0,1.7,0.2,2.4,0.5c0.7,0.3,1.4,0.8,1.9,1.3c1.1,1.1,1.6,2.4,1.6,3.8V39.8z"/>
<path class="st0" d="M737.8,57.5V47l-4.9-14.3h3.8l2.9,9.9h0.1l2.9-9.9h3.8L741.4,47v10.5H737.8z"/>
<path class="st0" d="M759.6,39.8H756V39c0-0.8-0.2-1.5-0.6-2.1c-0.4-0.6-1-0.9-1.9-0.9c-0.5,0-0.9,0.1-1.2,0.3
	c-0.3,0.2-0.5,0.4-0.7,0.7c-0.2,0.3-0.3,0.6-0.4,1c-0.1,0.4-0.1,0.8-0.1,1.2c0,0.5,0,0.9,0.1,1.2c0,0.3,0.1,0.6,0.3,0.9
	c0.1,0.3,0.3,0.5,0.6,0.7c0.3,0.2,0.6,0.4,1.1,0.6l2.7,1.1c0.8,0.3,1.4,0.7,1.9,1.1c0.5,0.4,0.9,0.9,1.2,1.4
	c0.3,0.6,0.4,1.2,0.5,1.9c0.1,0.7,0.1,1.5,0.1,2.4c0,1-0.1,2-0.3,2.9c-0.2,0.9-0.5,1.7-1,2.3c-0.5,0.7-1.1,1.2-1.9,1.5
	c-0.8,0.4-1.8,0.6-2.9,0.6c-0.9,0-1.7-0.2-2.4-0.5c-0.7-0.3-1.4-0.7-1.9-1.3c-0.5-0.5-1-1.2-1.3-1.9c-0.3-0.7-0.5-1.5-0.5-2.3v-1.3
	h3.6v1.1c0,0.7,0.2,1.2,0.6,1.8c0.4,0.5,1,0.8,1.9,0.8c0.6,0,1.1-0.1,1.4-0.3c0.3-0.2,0.6-0.4,0.8-0.8c0.2-0.3,0.3-0.7,0.3-1.2
	c0-0.5,0.1-1,0.1-1.5c0-0.7,0-1.2-0.1-1.6c0-0.4-0.1-0.8-0.3-1c-0.2-0.3-0.4-0.5-0.6-0.6c-0.3-0.2-0.6-0.3-1.1-0.5l-2.5-1
	c-1.5-0.6-2.6-1.5-3.1-2.5c-0.5-1-0.8-2.3-0.8-3.9c0-0.9,0.1-1.8,0.4-2.7c0.3-0.8,0.6-1.6,1.2-2.2c0.5-0.6,1.1-1.1,1.9-1.4
	c0.8-0.4,1.7-0.5,2.7-0.5c0.9,0,1.7,0.2,2.4,0.5c0.7,0.3,1.4,0.8,1.9,1.3c1.1,1.1,1.6,2.4,1.6,3.8V39.8z"/>
<path class="st0" d="M764.5,57.5V36h-4.1v-3.3h11.8V36h-4.1v21.5H764.5z"/>
<path class="st0" d="M773.8,57.5V32.6h10.6V36h-7v7.3h6.1v3.3h-6.1v7.3h7v3.6H773.8z"/>
<path class="st0" d="M786.7,57.5V32.6h3.4l4.6,13.1h0.1l4.5-13.1h3.5v24.8h-3.6V42.4h-0.1L795.6,53h-1.8l-3.5-10.7h-0.1v15.1H786.7z
	"/>
<path class="st0" d="M817.6,39.8H814V39c0-0.8-0.2-1.5-0.6-2.1c-0.4-0.6-1-0.9-1.9-0.9c-0.5,0-0.9,0.1-1.2,0.3
	c-0.3,0.2-0.5,0.4-0.7,0.7c-0.2,0.3-0.3,0.6-0.4,1c-0.1,0.4-0.1,0.8-0.1,1.2c0,0.5,0,0.9,0.1,1.2c0,0.3,0.1,0.6,0.3,0.9
	c0.1,0.3,0.3,0.5,0.6,0.7c0.3,0.2,0.6,0.4,1.1,0.6l2.7,1.1c0.8,0.3,1.4,0.7,1.9,1.1c0.5,0.4,0.9,0.9,1.2,1.4
	c0.3,0.6,0.4,1.2,0.5,1.9c0.1,0.7,0.1,1.5,0.1,2.4c0,1-0.1,2-0.3,2.9c-0.2,0.9-0.5,1.7-1,2.3c-0.5,0.7-1.1,1.2-1.9,1.5
	c-0.8,0.4-1.8,0.6-2.9,0.6c-0.9,0-1.7-0.2-2.4-0.5c-0.7-0.3-1.4-0.7-1.9-1.3c-0.5-0.5-1-1.2-1.3-1.9c-0.3-0.7-0.5-1.5-0.5-2.3v-1.3
	h3.6v1.1c0,0.7,0.2,1.2,0.6,1.8s1,0.8,1.9,0.8c0.6,0,1.1-0.1,1.4-0.3c0.3-0.2,0.6-0.4,0.8-0.8c0.2-0.3,0.3-0.7,0.3-1.2
	c0-0.5,0.1-1,0.1-1.5c0-0.7,0-1.2-0.1-1.6c0-0.4-0.1-0.8-0.3-1c-0.2-0.3-0.4-0.5-0.6-0.6c-0.3-0.2-0.6-0.3-1.1-0.5l-2.5-1
	c-1.5-0.6-2.6-1.5-3.1-2.5c-0.5-1-0.8-2.3-0.8-3.9c0-0.9,0.1-1.8,0.4-2.7c0.3-0.8,0.6-1.6,1.2-2.2c0.5-0.6,1.1-1.1,1.9-1.4
	c0.8-0.4,1.7-0.5,2.7-0.5c0.9,0,1.7,0.2,2.4,0.5s1.4,0.8,1.9,1.3c1.1,1.1,1.6,2.4,1.6,3.8V39.8z"/>
<path class="st0" d="M572.4,80.5l-1.7-9h-0.1l-1.7,9H572.4z M563.6,89.2l5.5-24.8h3l5.5,24.8h-3.6l-1-5.3h-4.8l-1,5.3H563.6z"/>
<path class="st0" d="M579.3,89.2V64.3h3.4l5.4,15h0.1v-15h3.6v24.8h-3.3l-5.4-14.9h-0.1v14.9H579.3z"/>
<path class="st0" d="M598.4,67.7v18.1h1.6c1,0,1.7-0.2,2.1-0.7c0.4-0.5,0.6-1.3,0.6-2.4v-12c0-1-0.2-1.7-0.6-2.3
	c-0.4-0.5-1.1-0.8-2.2-0.8H598.4z M594.9,89.2V64.3h5.3c2,0,3.6,0.6,4.7,1.7c1.1,1.1,1.6,2.7,1.6,4.7v11.6c0,2.3-0.6,4-1.7,5.1
	c-1.1,1.1-2.7,1.7-4.9,1.7H594.9z"/>
<path class="st0" d="M627.7,71.5h-3.6v-0.8c0-0.8-0.2-1.5-0.6-2.1c-0.4-0.6-1-0.9-1.9-0.9c-0.5,0-0.9,0.1-1.2,0.3
	c-0.3,0.2-0.5,0.4-0.7,0.7c-0.2,0.3-0.3,0.6-0.4,1c-0.1,0.4-0.1,0.8-0.1,1.2c0,0.5,0,0.9,0.1,1.2c0,0.3,0.1,0.6,0.3,0.9
	c0.1,0.3,0.3,0.5,0.6,0.7c0.3,0.2,0.6,0.4,1.1,0.6l2.7,1.1c0.8,0.3,1.4,0.7,1.9,1.1c0.5,0.4,0.9,0.9,1.1,1.4
	c0.3,0.6,0.4,1.2,0.5,1.9c0.1,0.7,0.1,1.5,0.1,2.4c0,1-0.1,2-0.3,2.9c-0.2,0.9-0.5,1.7-1,2.3c-0.5,0.7-1.1,1.2-1.9,1.5
	c-0.8,0.4-1.8,0.6-2.9,0.6c-0.9,0-1.7-0.2-2.4-0.5c-0.7-0.3-1.4-0.7-1.9-1.3c-0.5-0.5-1-1.2-1.3-1.9c-0.3-0.7-0.5-1.5-0.5-2.3v-1.3
	h3.6v1.1c0,0.7,0.2,1.2,0.6,1.8c0.4,0.5,1,0.8,1.9,0.8c0.6,0,1.1-0.1,1.4-0.3c0.3-0.2,0.6-0.4,0.8-0.8c0.2-0.3,0.3-0.7,0.3-1.2
	c0-0.5,0.1-1,0.1-1.5c0-0.7,0-1.2-0.1-1.6c0-0.4-0.1-0.8-0.3-1c-0.2-0.3-0.4-0.5-0.6-0.6c-0.3-0.2-0.6-0.3-1.1-0.5l-2.5-1
	c-1.5-0.6-2.6-1.5-3.1-2.5c-0.5-1-0.8-2.3-0.8-3.9c0-0.9,0.1-1.8,0.4-2.7c0.3-0.8,0.6-1.6,1.2-2.2c0.5-0.6,1.1-1.1,1.9-1.4
	c0.8-0.4,1.7-0.5,2.7-0.5c0.9,0,1.7,0.2,2.4,0.5c0.7,0.3,1.4,0.8,1.9,1.3c1.1,1.1,1.6,2.4,1.6,3.8V71.5z"/>
<path class="st0" d="M633.7,83.3c0,0.9,0.2,1.5,0.7,1.9c0.5,0.4,1,0.6,1.7,0.6s1.2-0.2,1.7-0.6c0.5-0.4,0.7-1,0.7-1.9V70.2
	c0-0.9-0.2-1.5-0.7-1.9c-0.5-0.4-1-0.6-1.7-0.6s-1.2,0.2-1.7,0.6c-0.5,0.4-0.7,1-0.7,1.9V83.3z M630.2,70.2c0-1,0.2-1.9,0.5-2.7
	c0.3-0.8,0.8-1.4,1.4-1.9c0.6-0.5,1.2-0.9,1.9-1.1c0.7-0.3,1.4-0.4,2.1-0.4s1.4,0.1,2.1,0.4c0.7,0.3,1.4,0.6,1.9,1.1
	c0.6,0.5,1,1.2,1.4,1.9c0.3,0.8,0.5,1.7,0.5,2.7v13.1c0,1-0.2,1.9-0.5,2.7c-0.3,0.7-0.8,1.4-1.4,1.8c-0.6,0.5-1.2,0.9-1.9,1.2
	c-0.7,0.3-1.4,0.4-2.1,0.4s-1.4-0.1-2.1-0.4c-0.7-0.3-1.3-0.6-1.9-1.2c-0.6-0.5-1-1.1-1.4-1.8c-0.3-0.7-0.5-1.6-0.5-2.7V70.2z"/>
<path class="st0" d="M645.2,89.2V64.3h10.6v3.3h-7v7.5h6.1v3.3h-6.1v10.6H645.2z"/>
<path class="st0" d="M660.5,89.2V67.7h-4.1v-3.3h11.8v3.3H664v21.5H660.5z"/>
<path class="st0" d="M688.2,64.3l-3.7,24.8h-3.3l-2.7-16.1h-0.1l-2.7,16.1h-3.3l-3.7-24.8h3.8l1.8,15.8h0.1l2.8-15.8h2.7l2.9,16.1
	h0.1l1.7-16.1H688.2z"/>
<path class="st0" d="M696.5,80.5l-1.7-9h-0.1l-1.7,9H696.5z M687.7,89.2l5.5-24.8h3l5.5,24.8h-3.6l-1-5.3h-4.8l-1,5.3H687.7z"/>
<path class="st0" d="M707.1,67.7v7.7h2c0.6,0,1.1-0.1,1.5-0.3c0.4-0.2,0.7-0.4,0.9-0.7c0.2-0.3,0.3-0.7,0.4-1.2
	c0.1-0.5,0.1-1,0.1-1.7c0-0.6,0-1.2-0.1-1.7c-0.1-0.5-0.2-0.9-0.4-1.2c-0.4-0.7-1.3-1-2.5-1H707.1z M703.5,89.2V64.3h5.7
	c4.2,0,6.3,2.4,6.3,7.3c0,1.5-0.2,2.7-0.7,3.7c-0.5,1-1.2,1.8-2.4,2.5l3.8,11.3h-3.8l-3.3-10.6h-2.1v10.6H703.5z"/>
<path class="st0" d="M718.4,89.2V64.3H729v3.3h-7V75h6.1v3.3H722v7.3h7v3.6H718.4z"/>
<path class="st0" d="M741.3,67.7v8.4h1.7c0.7,0,1.3-0.1,1.7-0.3c0.4-0.2,0.7-0.5,0.9-0.9c0.2-0.3,0.3-0.8,0.3-1.3
	c0-0.5,0.1-1.1,0.1-1.7c0-0.6,0-1.1,0-1.7c0-0.5-0.1-1-0.3-1.4c-0.2-0.4-0.5-0.7-0.8-0.9c-0.4-0.2-0.9-0.3-1.6-0.3H741.3z
	 M737.8,89.2V64.3h5.3c1,0,1.8,0.1,2.6,0.4c0.7,0.3,1.4,0.7,2,1.4c0.6,0.7,1,1.4,1.3,2.3c0.2,0.9,0.3,2.1,0.3,3.5
	c0,1.1-0.1,2.1-0.2,2.8c-0.1,0.8-0.4,1.5-0.8,2.2c-0.5,0.8-1.1,1.4-2,1.9c-0.8,0.5-1.9,0.7-3.2,0.7h-1.8v9.7H737.8z"/>
<path class="st0" d="M755.5,67.7v7.7h2c0.6,0,1.1-0.1,1.5-0.3c0.4-0.2,0.7-0.4,0.9-0.7c0.2-0.3,0.3-0.7,0.4-1.2
	c0.1-0.5,0.1-1,0.1-1.7c0-0.6,0-1.2-0.1-1.7c-0.1-0.5-0.2-0.9-0.4-1.2c-0.4-0.7-1.3-1-2.5-1H755.5z M752,89.2V64.3h5.7
	c4.2,0,6.3,2.4,6.3,7.3c0,1.5-0.2,2.7-0.7,3.7c-0.5,1-1.2,1.8-2.4,2.5l3.8,11.3H761l-3.3-10.6h-2.1v10.6H752z"/>
<path class="st0" d="M770.2,83.3c0,0.9,0.2,1.5,0.7,1.9c0.5,0.4,1,0.6,1.7,0.6c0.7,0,1.2-0.2,1.7-0.6c0.5-0.4,0.7-1,0.7-1.9V70.2
	c0-0.9-0.2-1.5-0.7-1.9s-1-0.6-1.7-0.6c-0.7,0-1.2,0.2-1.7,0.6s-0.7,1-0.7,1.9V83.3z M766.6,70.2c0-1,0.2-1.9,0.5-2.7
	c0.3-0.8,0.8-1.4,1.4-1.9c0.6-0.5,1.2-0.9,1.9-1.1c0.7-0.3,1.4-0.4,2.1-0.4c0.7,0,1.4,0.1,2.1,0.4c0.7,0.3,1.4,0.6,1.9,1.1
	c0.6,0.5,1,1.2,1.4,1.9c0.3,0.8,0.5,1.7,0.5,2.7v13.1c0,1-0.2,1.9-0.5,2.7c-0.3,0.7-0.8,1.4-1.4,1.8c-0.6,0.5-1.2,0.9-1.9,1.2
	c-0.7,0.3-1.4,0.4-2.1,0.4c-0.7,0-1.4-0.1-2.1-0.4c-0.7-0.3-1.3-0.6-1.9-1.2c-0.6-0.5-1-1.1-1.4-1.8c-0.3-0.7-0.5-1.6-0.5-2.7V70.2z
	"/>
<path class="st0" d="M781.5,70.2c0-1,0.2-1.9,0.5-2.7c0.3-0.8,0.8-1.4,1.4-1.9c0.6-0.5,1.2-0.9,1.9-1.1c0.7-0.3,1.4-0.4,2.1-0.4
	c0.7,0,1.4,0.1,2.1,0.4c0.7,0.3,1.4,0.6,1.9,1.1c0.6,0.5,1,1.2,1.4,1.9c0.3,0.8,0.5,1.7,0.5,2.7v1.3h-3.6v-1.3
	c0-0.9-0.2-1.5-0.7-1.9s-1-0.6-1.7-0.6c-0.7,0-1.2,0.2-1.7,0.6c-0.5,0.4-0.7,1-0.7,1.9v13.1c0,0.9,0.2,1.5,0.7,1.9
	c0.5,0.4,1,0.6,1.7,0.6c0.7,0,1.2-0.2,1.7-0.6c0.5-0.4,0.7-1,0.7-1.9v-4.7H787v-3.1h6.4v7.8c0,1-0.2,1.9-0.5,2.7
	c-0.3,0.7-0.8,1.4-1.4,1.8c-0.6,0.5-1.2,0.9-1.9,1.2c-0.7,0.3-1.4,0.4-2.1,0.4c-0.7,0-1.4-0.1-2.1-0.4c-0.7-0.3-1.3-0.6-1.9-1.2
	c-0.6-0.5-1-1.1-1.4-1.8c-0.3-0.7-0.5-1.6-0.5-2.7V70.2z"/>
<path class="st0" d="M800.1,67.7v7.7h2c0.6,0,1.1-0.1,1.5-0.3c0.4-0.2,0.7-0.4,0.9-0.7c0.2-0.3,0.3-0.7,0.4-1.2
	c0.1-0.5,0.1-1,0.1-1.7c0-0.6,0-1.2-0.1-1.7c-0.1-0.5-0.2-0.9-0.4-1.2c-0.4-0.7-1.3-1-2.5-1H800.1z M796.6,89.2V64.3h5.7
	c4.2,0,6.3,2.4,6.3,7.3c0,1.5-0.2,2.7-0.7,3.7c-0.5,1-1.2,1.8-2.4,2.5l3.8,11.3h-3.8l-3.3-10.6h-2.1v10.6H796.6z"/>
<path class="st0" d="M818.6,80.5l-1.7-9h-0.1l-1.7,9H818.6z M809.8,89.2l5.5-24.8h3l5.5,24.8h-3.6l-1-5.3h-4.8l-1,5.3H809.8z"/>
<path class="st0" d="M825.6,89.2V64.3h3.4l4.6,13.1h0.1l4.5-13.1h3.5v24.8h-3.6V74.1H838l-3.5,10.7h-1.8l-3.5-10.7h-0.1v15.1H825.6z
	"/>
</svg>
