<?xml version="1.0" encoding="UTF-8" standalone="no"?>
<!DOCTYPE svg PUBLIC "-//W3C//DTD SVG 1.1//EN" "http://www.w3.org/Graphics/SVG/1.1/DTD/svg11.dtd">
<svg width="100%" height="100%" viewBox="0 0 2930 314" version="1.1" xmlns="http://www.w3.org/2000/svg" xmlns:xlink="http://www.w3.org/1999/xlink" xml:space="preserve" xmlns:serif="http://www.serif.com/" style="fill-rule:evenodd;clip-rule:evenodd;stroke-linejoin:round;stroke-miterlimit:1.41421;">
    <g transform="matrix(4.16667,0,0,4.16667,0,-3.02499)">
        <path d="M271.483,52.235L271.483,54.225C271.483,61.631 273.03,64.616 277.784,66.163C282.094,67.6 290.274,68.263 303.538,68.263C332.388,68.263 337.583,66.052 337.583,53.783C337.583,47.593 335.705,44.829 330.73,43.393C325.866,42.066 325.424,42.066 292.484,41.845C279.11,41.735 273.361,40.74 268.83,37.755C264.409,34.771 262.639,30.681 262.639,23.386C262.639,12.332 266.62,6.032 275.352,3.49C281.653,1.61 291.379,0.726 306.523,0.726C323.546,0.726 332.278,1.942 337.363,5.147C342.779,8.464 344.437,12.332 344.768,22.612L336.147,22.612C336.036,16.754 335.041,14.101 332.609,12.222C329.182,9.569 321.556,8.464 306.633,8.464C277.561,8.464 271.926,10.785 271.926,22.612C271.926,27.696 273.361,30.571 276.457,32.008C280.326,33.776 283.642,33.997 304.534,34.108C327.967,34.218 333.052,34.661 338.356,37.203C344.326,40.077 346.758,45.051 346.758,54.225C346.758,64.395 343.331,70.474 336.036,73.238C330.62,75.227 322.219,76 305.196,76C287.29,76 278.888,75.227 272.921,73.238C266.287,70.916 262.639,65.279 262.639,57.32L262.639,52.235L271.483,52.235Z" style="fill:white;fill-rule:nonzero;"/>
        <path d="M414.353,38.861C430.27,38.861 433.808,36.098 433.808,23.828C433.808,11.89 430.27,8.906 416.122,8.906L368.261,8.906L368.261,38.861L414.353,38.861ZM359.417,1.499L418.885,1.499C430.493,1.499 435.024,2.605 438.56,6.363C441.765,9.68 442.981,14.433 442.981,23.275C442.981,34.108 441.546,38.64 437.125,42.177C433.475,45.051 428.833,46.266 420.876,46.266L368.261,46.266L368.261,75.227L359.417,75.227L359.417,1.499Z" style="fill:white;fill-rule:nonzero;"/>
        <rect x="455.406" y="1.499" width="3" height="73.728" style="fill:white;fill-rule:nonzero;"/>
        <path d="M216.44,1.499L203.943,1.499L160.476,75.271L170.32,75.271L210.247,7.694L250.174,75.271L259.907,75.271L216.44,1.499Z" style="fill:white;fill-rule:nonzero;"/>
        <path d="M179.285,1.499L139.358,69.077L99.431,1.499L89.698,1.499L89.586,1.499L49.66,69.077L9.733,1.499L0,1.499L43.466,75.271L55.964,75.271L94.564,9.759L133.165,75.271L145.663,75.271L189.129,1.499L179.285,1.499Z" style="fill:white;fill-rule:nonzero;"/>
        <path d="M487.501,1.524L484.413,22.265L481.617,22.265L479.345,8.807L479.286,8.807L477.044,22.265L474.247,22.265L471.159,1.524L474.305,1.524L475.791,14.691L475.849,14.691L478.18,1.524L480.451,1.524L482.869,15.012L482.928,15.012L484.354,1.524L487.501,1.524Z" style="fill:white;fill-rule:nonzero;"/>
        <path d="M494.491,15.012L493.035,7.496L492.976,7.496L491.52,15.012L494.491,15.012ZM487.151,22.265L491.782,1.524L494.259,1.524L498.889,22.265L495.919,22.265L495.045,17.808L490.996,17.808L490.122,22.265L487.151,22.265Z" style="fill:white;fill-rule:nonzero;"/>
        <path d="M500.346,22.265L500.346,1.524L503.317,1.524L503.317,19.293L509.202,19.293L509.202,22.265L500.346,22.265Z" style="fill:white;fill-rule:nonzero;"/>
        <path d="M511.124,22.265L511.124,1.524L514.094,1.524L514.094,19.293L519.979,19.293L519.979,22.265L511.124,22.265Z" style="fill:white;fill-rule:nonzero;"/>
        <path d="M521.901,22.265L521.901,1.524L530.758,1.524L530.758,4.321L524.873,4.321L524.873,10.409L530,10.409L530,13.205L524.873,13.205L524.873,19.293L530.758,19.293L530.758,22.265L521.901,22.265Z" style="fill:white;fill-rule:nonzero;"/>
        <path d="M532.562,22.265L532.562,1.524L535.418,1.524L539.903,14.021L539.962,14.021L539.962,1.524L542.932,1.524L542.932,22.265L540.137,22.265L535.593,9.797L535.534,9.797L535.534,22.265L532.562,22.265Z" style="fill:white;fill-rule:nonzero;"/>
        <path d="M548.583,12.652L548.583,19.293L549.865,19.293C550.467,19.293 550.937,19.206 551.277,19.031C551.617,18.856 551.875,18.614 552.05,18.303C552.224,17.993 552.331,17.623 552.37,17.196C552.409,16.769 552.429,16.303 552.429,15.798C552.429,15.273 552.399,14.817 552.341,14.429C552.282,14.04 552.166,13.71 551.991,13.438C551.797,13.167 551.535,12.968 551.205,12.841C550.874,12.715 550.437,12.652 549.894,12.652L548.583,12.652ZM548.583,4.321L548.583,10.03L549.923,10.03C550.914,10.03 551.578,9.783 551.919,9.287C552.258,8.792 552.429,8.069 552.429,7.118C552.429,6.185 552.239,5.486 551.86,5.02C551.481,4.554 550.797,4.321 549.806,4.321L548.583,4.321ZM545.612,22.265L545.612,1.524L549.952,1.524C550.903,1.524 551.715,1.67 552.385,1.961C553.055,2.253 553.603,2.641 554.03,3.127C554.457,3.612 554.763,4.171 554.948,4.802C555.132,5.433 555.224,6.088 555.224,6.768L555.224,7.525C555.224,8.089 555.18,8.564 555.094,8.952C555.006,9.341 554.875,9.681 554.7,9.972C554.37,10.516 553.865,10.982 553.185,11.37C553.885,11.701 554.399,12.186 554.729,12.827C555.059,13.468 555.224,14.341 555.224,15.448L555.224,16.614C555.224,18.439 554.783,19.837 553.899,20.808C553.015,21.779 551.602,22.265 549.661,22.265L545.612,22.265Z" style="fill:white;fill-rule:nonzero;"/>
        <path d="M558.021,22.265L558.021,1.524L566.877,1.524L566.877,4.321L560.992,4.321L560.992,10.409L566.119,10.409L566.119,13.205L560.992,13.205L560.992,19.293L566.877,19.293L566.877,22.265L558.021,22.265Z" style="fill:white;fill-rule:nonzero;"/>
        <path d="M571.769,4.321L571.769,10.787L573.459,10.787C573.983,10.787 574.401,10.715 574.712,10.569C575.022,10.424 575.265,10.215 575.44,9.943C575.596,9.671 575.702,9.336 575.761,8.938C575.818,8.54 575.847,8.078 575.847,7.554C575.847,7.03 575.818,6.569 575.761,6.171C575.702,5.773 575.586,5.428 575.411,5.137C575.042,4.593 574.343,4.321 573.313,4.321L571.769,4.321ZM568.799,22.265L568.799,1.524L573.576,1.524C577.071,1.524 578.819,3.554 578.819,7.613C578.819,8.836 578.63,9.875 578.251,10.729C577.872,11.584 577.207,12.273 576.256,12.798L579.46,22.265L576.313,22.265L573.547,13.409L571.769,13.409L571.769,22.265L568.799,22.265Z" style="fill:white;fill-rule:nonzero;"/>
        <path d="M581.033,6.418C581.033,5.583 581.179,4.845 581.47,4.204C581.761,3.563 582.149,3.03 582.635,2.602C583.101,2.195 583.63,1.884 584.222,1.67C584.814,1.457 585.412,1.35 586.013,1.35C586.616,1.35 587.213,1.457 587.805,1.67C588.397,1.884 588.936,2.195 589.422,2.602C589.888,3.03 590.266,3.563 590.558,4.204C590.849,4.845 590.995,5.583 590.995,6.418L590.995,7.467L588.024,7.467L588.024,6.418C588.024,5.7 587.824,5.171 587.427,4.831C587.028,4.491 586.557,4.321 586.013,4.321C585.47,4.321 584.999,4.491 584.601,4.831C584.203,5.171 584.004,5.7 584.004,6.418L584.004,17.371C584.004,18.09 584.203,18.619 584.601,18.958C584.999,19.298 585.47,19.468 586.013,19.468C586.557,19.468 587.028,19.298 587.427,18.958C587.824,18.619 588.024,18.09 588.024,17.371L588.024,13.468L585.664,13.468L585.664,10.846L590.995,10.846L590.995,17.371C590.995,18.245 590.849,18.993 590.558,19.614C590.266,20.236 589.888,20.75 589.422,21.158C588.936,21.585 588.397,21.906 587.805,22.119C587.213,22.332 586.616,22.439 586.013,22.439C585.412,22.439 584.814,22.332 584.222,22.119C583.63,21.906 583.101,21.585 582.635,21.158C582.149,20.75 581.761,20.236 581.47,19.614C581.179,18.993 581.033,18.245 581.033,17.371L581.033,6.418Z" style="fill:white;fill-rule:nonzero;"/>
        <path d="M605.035,15.012L603.579,7.496L603.52,7.496L602.064,15.012L605.035,15.012ZM597.695,22.265L602.326,1.524L604.803,1.524L609.433,22.265L606.463,22.265L605.589,17.808L601.54,17.808L600.666,22.265L597.695,22.265Z" style="fill:white;fill-rule:nonzero;"/>
        <rect x="610.977" y="1.524" width="2.972" height="20.741" style="fill:white;fill-rule:nonzero;"/>
        <path d="M616.657,24.42L616.657,19.293L619.628,19.293L619.628,22.265L616.657,24.42Z" style="fill:white;fill-rule:nonzero;"/>
        <path d="M478.092,41.48L476.636,33.965L476.577,33.965L475.121,41.48L478.092,41.48ZM470.752,48.733L475.383,27.993L477.859,27.993L482.49,48.733L479.519,48.733L478.645,44.277L474.596,44.277L473.722,48.733L470.752,48.733Z" style="fill:white;fill-rule:nonzero;"/>
        <path d="M493.559,27.993L493.559,44.073C493.559,44.753 493.438,45.379 493.195,45.952C492.952,46.524 492.608,47.034 492.161,47.481C491.715,47.928 491.2,48.277 490.617,48.529C490.035,48.782 489.413,48.908 488.753,48.908C488.093,48.908 487.476,48.782 486.903,48.529C486.331,48.277 485.821,47.928 485.374,47.481C484.928,47.034 484.578,46.524 484.326,45.952C484.073,45.379 483.947,44.753 483.947,44.073L483.947,27.993L486.918,27.993L486.918,43.781C486.918,44.519 487.093,45.063 487.442,45.412C487.792,45.762 488.229,45.937 488.753,45.937C489.277,45.937 489.715,45.762 490.064,45.412C490.414,45.063 490.589,44.519 490.589,43.781L490.589,27.993L493.559,27.993Z" style="fill:white;fill-rule:nonzero;"/>
        <path d="M498.307,48.733L498.307,30.79L494.871,30.79L494.871,27.993L504.716,27.993L504.716,30.79L501.279,30.79L501.279,48.733L498.307,48.733Z" style="fill:white;fill-rule:nonzero;"/>
        <path d="M508.473,43.84C508.473,44.558 508.673,45.088 509.071,45.427C509.469,45.767 509.939,45.937 510.483,45.937C511.027,45.937 511.498,45.767 511.896,45.427C512.294,45.088 512.494,44.558 512.494,43.84L512.494,32.887C512.494,32.169 512.294,31.64 511.896,31.3C511.498,30.96 511.027,30.79 510.483,30.79C509.939,30.79 509.469,30.96 509.071,31.3C508.673,31.64 508.473,32.169 508.473,32.887L508.473,43.84ZM505.503,32.887C505.503,32.052 505.648,31.314 505.939,30.673C506.23,30.032 506.619,29.498 507.104,29.071C507.571,28.663 508.099,28.353 508.692,28.139C509.284,27.926 509.882,27.819 510.483,27.819C511.086,27.819 511.682,27.926 512.275,28.139C512.867,28.353 513.406,28.663 513.891,29.071C514.357,29.498 514.736,30.032 515.028,30.673C515.318,31.314 515.465,32.052 515.465,32.887L515.465,43.84C515.465,44.713 515.318,45.461 515.028,46.082C514.736,46.704 514.357,47.219 513.891,47.626C513.406,48.054 512.867,48.374 512.275,48.588C511.682,48.801 511.086,48.908 510.483,48.908C509.882,48.908 509.284,48.801 508.692,48.588C508.099,48.374 507.571,48.054 507.104,47.626C506.619,47.219 506.23,46.704 505.939,46.082C505.648,45.461 505.503,44.713 505.503,43.84L505.503,32.887Z" style="fill:white;fill-rule:nonzero;"/>
        <path d="M517.969,48.733L517.969,27.993L520.823,27.993L525.309,40.49L525.368,40.49L525.368,27.993L528.339,27.993L528.339,48.733L525.543,48.733L520.999,36.266L520.94,36.266L520.94,48.733L517.969,48.733Z" style="fill:white;fill-rule:nonzero;"/>
        <path d="M533.815,43.84C533.815,44.558 534.014,45.088 534.413,45.427C534.81,45.767 535.281,45.937 535.825,45.937C536.369,45.937 536.84,45.767 537.238,45.427C537.636,45.088 537.836,44.558 537.836,43.84L537.836,32.887C537.836,32.169 537.636,31.64 537.238,31.3C536.84,30.96 536.369,30.79 535.825,30.79C535.281,30.79 534.81,30.96 534.413,31.3C534.014,31.64 533.815,32.169 533.815,32.887L533.815,43.84ZM530.845,32.887C530.845,32.052 530.99,31.314 531.281,30.673C531.572,30.032 531.961,29.498 532.446,29.071C532.913,28.663 533.441,28.353 534.034,28.139C534.626,27.926 535.223,27.819 535.825,27.819C536.428,27.819 537.024,27.926 537.617,28.139C538.209,28.353 538.748,28.663 539.233,29.071C539.7,29.498 540.078,30.032 540.37,30.673C540.661,31.314 540.806,32.052 540.806,32.887L540.806,43.84C540.806,44.713 540.661,45.461 540.37,46.082C540.078,46.704 539.7,47.219 539.233,47.626C538.748,48.054 538.209,48.374 537.617,48.588C537.024,48.801 536.428,48.908 535.825,48.908C535.223,48.908 534.626,48.801 534.034,48.588C533.441,48.374 532.913,48.054 532.446,47.626C531.961,47.219 531.572,46.704 531.281,46.082C530.99,45.461 530.845,44.713 530.845,43.84L530.845,32.887Z" style="fill:white;fill-rule:nonzero;"/>
        <path d="M543.428,48.733L543.428,27.993L546.282,27.993L550.097,38.975L550.156,38.975L553.943,27.993L556.827,27.993L556.827,48.733L553.855,48.733L553.855,36.12L553.798,36.12L550.855,45.034L549.37,45.034L546.457,36.12L546.398,36.12L546.398,48.733L543.428,48.733Z" style="fill:white;fill-rule:nonzero;"/>
        <path d="M562.42,43.84C562.42,44.558 562.619,45.088 563.017,45.427C563.415,45.767 563.886,45.937 564.43,45.937C564.973,45.937 565.444,45.767 565.843,45.427C566.24,45.088 566.44,44.558 566.44,43.84L566.44,32.887C566.44,32.169 566.24,31.64 565.843,31.3C565.444,30.96 564.973,30.79 564.43,30.79C563.886,30.79 563.415,30.96 563.017,31.3C562.619,31.64 562.42,32.169 562.42,32.887L562.42,43.84ZM559.449,32.887C559.449,32.052 559.595,31.314 559.886,30.673C560.177,30.032 560.565,29.498 561.051,29.071C561.517,28.663 562.046,28.353 562.638,28.139C563.23,27.926 563.828,27.819 564.43,27.819C565.032,27.819 565.629,27.926 566.221,28.139C566.813,28.353 567.352,28.663 567.838,29.071C568.305,29.498 568.682,30.032 568.974,30.673C569.265,31.314 569.411,32.052 569.411,32.887L569.411,43.84C569.411,44.713 569.265,45.461 568.974,46.082C568.682,46.704 568.305,47.219 567.838,47.626C567.352,48.054 566.813,48.374 566.221,48.588C565.629,48.801 565.032,48.908 564.43,48.908C563.828,48.908 563.23,48.801 562.638,48.588C562.046,48.374 561.517,48.054 561.051,47.626C560.565,47.219 560.177,46.704 559.886,46.082C559.595,45.461 559.449,44.713 559.449,43.84L559.449,32.887Z" style="fill:white;fill-rule:nonzero;"/>
        <path d="M581.645,27.993L581.645,44.073C581.645,44.753 581.524,45.379 581.281,45.952C581.038,46.524 580.694,47.034 580.247,47.481C579.801,47.928 579.286,48.277 578.703,48.529C578.121,48.782 577.499,48.908 576.839,48.908C576.179,48.908 575.562,48.782 574.989,48.529C574.417,48.277 573.907,47.928 573.46,47.481C573.013,47.034 572.664,46.524 572.412,45.952C572.159,45.379 572.033,44.753 572.033,44.073L572.033,27.993L575.004,27.993L575.004,43.781C575.004,44.519 575.179,45.063 575.528,45.412C575.878,45.762 576.315,45.937 576.839,45.937C577.363,45.937 577.801,45.762 578.15,45.412C578.5,45.063 578.675,44.519 578.675,43.781L578.675,27.993L581.645,27.993Z" style="fill:white;fill-rule:nonzero;"/>
        <path d="M594.054,33.965L591.083,33.965L591.083,33.295C591.083,32.615 590.923,32.028 590.601,31.533C590.281,31.037 589.743,30.79 588.985,30.79C588.577,30.79 588.247,30.868 587.995,31.023C587.742,31.179 587.538,31.372 587.383,31.605C587.227,31.858 587.121,32.144 587.062,32.465C587.005,32.785 586.975,33.12 586.975,33.47C586.975,33.877 586.99,34.217 587.019,34.489C587.048,34.761 587.121,35.004 587.237,35.217C587.354,35.431 587.523,35.616 587.747,35.771C587.971,35.927 588.276,36.081 588.665,36.237L590.936,37.14C591.596,37.392 592.131,37.689 592.539,38.028C592.947,38.368 593.267,38.762 593.5,39.208C593.714,39.674 593.859,40.204 593.937,40.796C594.014,41.388 594.054,42.063 594.054,42.82C594.054,43.694 593.967,44.505 593.792,45.252C593.617,46 593.335,46.636 592.947,47.161C592.539,47.704 592.005,48.132 591.345,48.442C590.684,48.752 589.878,48.908 588.927,48.908C588.208,48.908 587.538,48.782 586.917,48.529C586.296,48.277 585.762,47.928 585.315,47.481C584.868,47.034 584.513,46.515 584.252,45.922C583.989,45.33 583.858,44.684 583.858,43.985L583.858,42.878L586.83,42.878L586.83,43.81C586.83,44.354 586.99,44.845 587.31,45.282C587.631,45.719 588.17,45.937 588.927,45.937C589.431,45.937 589.825,45.864 590.106,45.719C590.388,45.573 590.606,45.364 590.763,45.092C590.917,44.82 591.01,44.495 591.039,44.116C591.068,43.738 591.083,43.315 591.083,42.849C591.083,42.306 591.063,41.859 591.024,41.509C590.985,41.16 590.908,40.878 590.791,40.664C590.655,40.451 590.475,40.276 590.253,40.14C590.029,40.005 589.732,39.859 589.364,39.703L587.237,38.829C585.956,38.305 585.096,37.611 584.659,36.746C584.222,35.883 584.004,34.8 584.004,33.499C584.004,32.722 584.11,31.984 584.324,31.285C584.538,30.586 584.858,29.984 585.286,29.479C585.693,28.974 586.213,28.571 586.845,28.27C587.475,27.969 588.227,27.819 589.101,27.819C589.84,27.819 590.514,27.954 591.126,28.226C591.738,28.498 592.266,28.858 592.714,29.304C593.606,30.236 594.054,31.305 594.054,32.508L594.054,33.965Z" style="fill:white;fill-rule:nonzero;"/>
        <path d="M611.298,33.965L608.327,33.965L608.327,33.295C608.327,32.615 608.167,32.028 607.846,31.533C607.525,31.037 606.987,30.79 606.229,30.79C605.821,30.79 605.491,30.868 605.239,31.023C604.986,31.179 604.782,31.372 604.627,31.605C604.471,31.858 604.365,32.144 604.306,32.465C604.249,32.785 604.22,33.12 604.22,33.47C604.22,33.877 604.234,34.217 604.263,34.489C604.292,34.761 604.365,35.004 604.481,35.217C604.598,35.431 604.767,35.616 604.991,35.771C605.215,35.927 605.52,36.081 605.909,36.237L608.18,37.14C608.841,37.392 609.375,37.689 609.783,38.028C610.191,38.368 610.512,38.762 610.744,39.208C610.958,39.674 611.103,40.204 611.181,40.796C611.259,41.388 611.298,42.063 611.298,42.82C611.298,43.694 611.211,44.505 611.036,45.252C610.861,46 610.579,46.636 610.191,47.161C609.783,47.704 609.249,48.132 608.589,48.442C607.929,48.752 607.122,48.908 606.171,48.908C605.452,48.908 604.782,48.782 604.161,48.529C603.54,48.277 603.006,47.928 602.559,47.481C602.112,47.034 601.758,46.515 601.496,45.922C601.233,45.33 601.102,44.684 601.102,43.985L601.102,42.878L604.074,42.878L604.074,43.81C604.074,44.354 604.234,44.845 604.555,45.282C604.875,45.719 605.414,45.937 606.171,45.937C606.676,45.937 607.069,45.864 607.35,45.719C607.632,45.573 607.85,45.364 608.007,45.092C608.161,44.82 608.254,44.495 608.283,44.116C608.312,43.738 608.327,43.315 608.327,42.849C608.327,42.306 608.307,41.859 608.268,41.509C608.229,41.16 608.152,40.878 608.035,40.664C607.899,40.451 607.72,40.276 607.497,40.14C607.273,40.005 606.976,39.859 606.608,39.703L604.481,38.829C603.2,38.305 602.341,37.611 601.903,36.746C601.467,35.883 601.248,34.8 601.248,33.499C601.248,32.722 601.354,31.984 601.568,31.285C601.782,30.586 602.102,29.984 602.53,29.479C602.937,28.974 603.457,28.571 604.089,28.27C604.72,27.969 605.471,27.819 606.346,27.819C607.084,27.819 607.759,27.954 608.37,28.226C608.982,28.498 609.511,28.858 609.958,29.304C610.85,30.236 611.298,31.305 611.298,32.508L611.298,33.965Z" style="fill:white;fill-rule:nonzero;"/>
        <path d="M616.278,48.733L616.278,39.965L612.2,27.993L615.346,27.993L617.735,36.237L617.794,36.237L620.181,27.993L623.328,27.993L619.25,39.965L619.25,48.733L616.278,48.733Z" style="fill:white;fill-rule:nonzero;"/>
        <path d="M634.426,33.965L631.455,33.965L631.455,33.295C631.455,32.615 631.295,32.028 630.973,31.533C630.653,31.037 630.115,30.79 629.357,30.79C628.949,30.79 628.619,30.868 628.367,31.023C628.114,31.179 627.91,31.372 627.755,31.605C627.599,31.858 627.493,32.144 627.434,32.465C627.377,32.785 627.347,33.12 627.347,33.47C627.347,33.877 627.362,34.217 627.391,34.489C627.42,34.761 627.493,35.004 627.609,35.217C627.726,35.431 627.895,35.616 628.119,35.771C628.343,35.927 628.648,36.081 629.037,36.237L631.308,37.14C631.969,37.392 632.503,37.689 632.911,38.028C633.319,38.368 633.639,38.762 633.872,39.208C634.086,39.674 634.231,40.204 634.309,40.796C634.387,41.388 634.426,42.063 634.426,42.82C634.426,43.694 634.339,44.505 634.164,45.252C633.989,46 633.707,46.636 633.319,47.161C632.911,47.704 632.377,48.132 631.717,48.442C631.056,48.752 630.25,48.908 629.299,48.908C628.58,48.908 627.91,48.782 627.289,48.529C626.668,48.277 626.134,47.928 625.687,47.481C625.24,47.034 624.886,46.515 624.624,45.922C624.361,45.33 624.23,44.684 624.23,43.985L624.23,42.878L627.202,42.878L627.202,43.81C627.202,44.354 627.362,44.845 627.682,45.282C628.003,45.719 628.542,45.937 629.299,45.937C629.804,45.937 630.197,45.864 630.478,45.719C630.76,45.573 630.978,45.364 631.135,45.092C631.289,44.82 631.382,44.495 631.411,44.116C631.44,43.738 631.455,43.315 631.455,42.849C631.455,42.306 631.435,41.859 631.396,41.509C631.357,41.16 631.28,40.878 631.163,40.664C631.027,40.451 630.847,40.276 630.625,40.14C630.401,40.005 630.104,39.859 629.736,39.703L627.609,38.829C626.328,38.305 625.469,37.611 625.031,36.746C624.595,35.883 624.376,34.8 624.376,33.499C624.376,32.722 624.482,31.984 624.696,31.285C624.91,30.586 625.23,29.984 625.658,29.479C626.065,28.974 626.585,28.571 627.217,28.27C627.847,27.969 628.599,27.819 629.473,27.819C630.212,27.819 630.887,27.954 631.498,28.226C632.11,28.498 632.638,28.858 633.086,29.304C633.978,30.236 634.426,31.305 634.426,32.508L634.426,33.965Z" style="fill:white;fill-rule:nonzero;"/>
        <path d="M638.591,48.733L638.591,30.79L635.154,30.79L635.154,27.993L644.999,27.993L644.999,30.79L641.562,30.79L641.562,48.733L638.591,48.733Z" style="fill:white;fill-rule:nonzero;"/>
        <path d="M646.309,48.733L646.309,27.993L655.165,27.993L655.165,30.79L649.28,30.79L649.28,36.878L654.407,36.878L654.407,39.674L649.28,39.674L649.28,45.762L655.165,45.762L655.165,48.733L646.309,48.733Z" style="fill:white;fill-rule:nonzero;"/>
        <path d="M657.088,48.733L657.088,27.993L659.942,27.993L663.758,38.975L663.816,38.975L667.603,27.993L670.487,27.993L670.487,48.733L667.515,48.733L667.515,36.12L667.458,36.12L664.515,45.034L663.03,45.034L660.117,36.12L660.058,36.12L660.058,48.733L657.088,48.733Z" style="fill:white;fill-rule:nonzero;"/>
        <path d="M682.895,33.965L679.925,33.965L679.925,33.295C679.925,32.615 679.764,32.028 679.443,31.533C679.123,31.037 678.585,30.79 677.827,30.79C677.419,30.79 677.089,30.868 676.837,31.023C676.584,31.179 676.38,31.372 676.224,31.605C676.069,31.858 675.963,32.144 675.904,32.465C675.846,32.785 675.817,33.12 675.817,33.47C675.817,33.877 675.832,34.217 675.861,34.489C675.889,34.761 675.963,35.004 676.079,35.217C676.196,35.431 676.365,35.616 676.589,35.771C676.812,35.927 677.118,36.081 677.507,36.237L679.778,37.14C680.438,37.392 680.972,37.689 681.381,38.028C681.789,38.368 682.109,38.762 682.342,39.208C682.555,39.674 682.701,40.204 682.779,40.796C682.856,41.388 682.895,42.063 682.895,42.82C682.895,43.694 682.808,44.505 682.634,45.252C682.459,46 682.177,46.636 681.789,47.161C681.381,47.704 680.846,48.132 680.186,48.442C679.526,48.752 678.72,48.908 677.768,48.908C677.05,48.908 676.38,48.782 675.759,48.529C675.138,48.277 674.603,47.928 674.157,47.481C673.71,47.034 673.355,46.515 673.094,45.922C672.831,45.33 672.7,44.684 672.7,43.985L672.7,42.878L675.672,42.878L675.672,43.81C675.672,44.354 675.832,44.845 676.152,45.282C676.472,45.719 677.012,45.937 677.768,45.937C678.273,45.937 678.667,45.864 678.948,45.719C679.229,45.573 679.448,45.364 679.604,45.092C679.759,44.82 679.851,44.495 679.881,44.116C679.91,43.738 679.925,43.315 679.925,42.849C679.925,42.306 679.905,41.859 679.866,41.509C679.827,41.16 679.75,40.878 679.633,40.664C679.497,40.451 679.317,40.276 679.095,40.14C678.871,40.005 678.574,39.859 678.206,39.703L676.079,38.829C674.798,38.305 673.938,37.611 673.501,36.746C673.064,35.883 672.846,34.8 672.846,33.499C672.846,32.722 672.952,31.984 673.166,31.285C673.38,30.586 673.7,29.984 674.128,29.479C674.535,28.974 675.055,28.571 675.686,28.27C676.317,27.969 677.069,27.819 677.943,27.819C678.681,27.819 679.356,27.954 679.968,28.226C680.58,28.498 681.108,28.858 681.555,29.304C682.448,30.236 682.895,31.305 682.895,32.508L682.895,33.965Z" style="fill:white;fill-rule:nonzero;"/>
        <path d="M478.092,67.95L476.636,60.434L476.577,60.434L475.121,67.95L478.092,67.95ZM470.752,75.203L475.383,54.462L477.859,54.462L482.49,75.203L479.519,75.203L478.645,70.745L474.596,70.745L473.722,75.203L470.752,75.203Z" style="fill:white;fill-rule:nonzero;"/>
        <path d="M483.83,75.203L483.83,54.462L486.685,54.462L491.171,66.959L491.229,66.959L491.229,54.462L494.2,54.462L494.2,75.203L491.404,75.203L486.86,62.735L486.802,62.735L486.802,75.203L483.83,75.203Z" style="fill:white;fill-rule:nonzero;"/>
        <path d="M499.85,57.259L499.85,72.406L501.22,72.406C502.055,72.406 502.647,72.198 502.997,71.78C503.346,71.363 503.521,70.707 503.521,69.814L503.521,59.823C503.521,59.006 503.355,58.375 503.026,57.929C502.695,57.483 502.094,57.259 501.22,57.259L499.85,57.259ZM496.88,75.203L496.88,54.462L501.278,54.462C502.986,54.462 504.283,54.928 505.167,55.861C506.051,56.793 506.492,58.114 506.492,59.823L506.492,69.522C506.492,71.464 506.021,72.897 505.079,73.819C504.138,74.742 502.783,75.203 501.015,75.203L496.88,75.203Z" style="fill:white;fill-rule:nonzero;"/>
        <path d="M524.319,60.434L521.348,60.434L521.348,59.764C521.348,59.084 521.188,58.496 520.867,58.001C520.547,57.506 520.008,57.259 519.25,57.259C518.843,57.259 518.513,57.336 518.261,57.492C518.008,57.648 517.804,57.841 517.648,58.075C517.492,58.328 517.387,58.614 517.328,58.934C517.27,59.254 517.241,59.589 517.241,59.939C517.241,60.347 517.255,60.687 517.284,60.958C517.313,61.231 517.387,61.473 517.503,61.687C517.62,61.901 517.789,62.084 518.013,62.24C518.236,62.396 518.542,62.551 518.93,62.706L521.202,63.609C521.862,63.862 522.396,64.158 522.805,64.497C523.213,64.837 523.533,65.231 523.765,65.677C523.979,66.143 524.125,66.672 524.203,67.265C524.28,67.858 524.319,68.532 524.319,69.289C524.319,70.163 524.232,70.974 524.057,71.722C523.883,72.469 523.599,73.105 523.213,73.629C522.805,74.173 522.27,74.601 521.61,74.912C520.95,75.222 520.143,75.377 519.192,75.377C518.473,75.377 517.804,75.25 517.182,74.998C516.56,74.746 516.026,74.397 515.581,73.95C515.133,73.503 514.779,72.984 514.517,72.392C514.255,71.799 514.124,71.154 514.124,70.454L514.124,69.348L517.096,69.348L517.096,70.28C517.096,70.824 517.255,71.314 517.576,71.75C517.896,72.188 518.435,72.406 519.192,72.406C519.697,72.406 520.091,72.333 520.372,72.188C520.653,72.042 520.872,71.833 521.028,71.561C521.182,71.289 521.275,70.964 521.305,70.585C521.334,70.206 521.348,69.785 521.348,69.319C521.348,68.775 521.328,68.328 521.289,67.979C521.25,67.629 521.174,67.348 521.056,67.134C520.921,66.92 520.741,66.745 520.518,66.61C520.294,66.474 519.998,66.328 519.63,66.172L517.503,65.298C516.221,64.774 515.362,64.08 514.925,63.216C514.487,62.352 514.268,61.269 514.268,59.968C514.268,59.192 514.375,58.454 514.59,57.754C514.804,57.055 515.124,56.454 515.552,55.948C515.959,55.443 516.478,55.04 517.11,54.739C517.741,54.438 518.492,54.287 519.367,54.287C520.104,54.287 520.78,54.423 521.391,54.695C522.004,54.967 522.531,55.327 522.979,55.774C523.872,56.705 524.319,57.774 524.319,58.978L524.319,60.434Z" style="fill:white;fill-rule:nonzero;"/>
        <path d="M529.329,70.309C529.329,71.028 529.528,71.557 529.927,71.896C530.324,72.237 530.795,72.406 531.339,72.406C531.883,72.406 532.353,72.237 532.752,71.896C533.149,71.557 533.349,71.028 533.349,70.309L533.349,59.356C533.349,58.638 533.149,58.109 532.752,57.769C532.353,57.429 531.883,57.259 531.339,57.259C530.795,57.259 530.324,57.429 529.927,57.769C529.528,58.109 529.329,58.638 529.329,59.356L529.329,70.309ZM526.358,59.356C526.358,58.522 526.504,57.784 526.795,57.142C527.086,56.501 527.474,55.967 527.96,55.54C528.427,55.132 528.955,54.822 529.548,54.608C530.139,54.394 530.737,54.287 531.339,54.287C531.941,54.287 532.538,54.394 533.131,54.608C533.722,54.822 534.262,55.132 534.747,55.54C535.214,55.967 535.592,56.501 535.884,57.142C536.175,57.784 536.32,58.522 536.32,59.356L536.32,70.309C536.32,71.183 536.175,71.93 535.884,72.552C535.592,73.173 535.214,73.688 534.747,74.096C534.262,74.523 533.722,74.843 533.131,75.057C532.538,75.27 531.941,75.377 531.339,75.377C530.737,75.377 530.139,75.27 529.548,75.057C528.955,74.843 528.427,74.523 527.96,74.096C527.474,73.688 527.086,73.173 526.795,72.552C526.504,71.93 526.358,71.183 526.358,70.309L526.358,59.356Z" style="fill:white;fill-rule:nonzero;"/>
        <path d="M538.941,75.203L538.941,54.462L547.797,54.462L547.797,57.259L541.912,57.259L541.912,63.551L547.039,63.551L547.039,66.347L541.912,66.347L541.912,75.203L538.941,75.203Z" style="fill:white;fill-rule:nonzero;"/>
        <path d="M551.671,75.203L551.671,57.259L548.234,57.259L548.234,54.462L558.079,54.462L558.079,57.259L554.642,57.259L554.642,75.203L551.671,75.203Z" style="fill:white;fill-rule:nonzero;"/>
        <path d="M574.799,54.462L571.711,75.203L568.915,75.203L566.642,61.745L566.584,61.745L564.342,75.203L561.545,75.203L558.457,54.462L561.603,54.462L563.089,67.629L563.147,67.629L565.477,54.462L567.749,54.462L570.167,67.95L570.225,67.95L571.652,54.462L574.799,54.462Z" style="fill:white;fill-rule:nonzero;"/>
        <path d="M581.789,67.95L580.333,60.434L580.274,60.434L578.818,67.95L581.789,67.95ZM574.449,75.203L579.08,54.462L581.556,54.462L586.187,75.203L583.217,75.203L582.343,70.745L578.294,70.745L577.42,75.203L574.449,75.203Z" style="fill:white;fill-rule:nonzero;"/>
        <path d="M590.615,57.259L590.615,63.726L592.305,63.726C592.829,63.726 593.247,63.653 593.557,63.507C593.868,63.362 594.111,63.153 594.286,62.881C594.441,62.609 594.548,62.274 594.606,61.876C594.664,61.478 594.693,61.017 594.693,60.493C594.693,59.968 594.664,59.507 594.606,59.109C594.548,58.711 594.431,58.366 594.257,58.075C593.888,57.531 593.188,57.259 592.159,57.259L590.615,57.259ZM587.644,75.203L587.644,54.462L592.422,54.462C595.917,54.462 597.665,56.492 597.665,60.55C597.665,61.774 597.475,62.813 597.096,63.667C596.718,64.522 596.053,65.211 595.101,65.736L598.305,75.203L595.159,75.203L592.392,66.347L590.615,66.347L590.615,75.203L587.644,75.203Z" style="fill:white;fill-rule:nonzero;"/>
        <path d="M600.054,75.203L600.054,54.462L608.909,54.462L608.909,57.259L603.024,57.259L603.024,63.347L608.151,63.347L608.151,66.143L603.024,66.143L603.024,72.232L608.909,72.232L608.909,75.203L600.054,75.203Z" style="fill:white;fill-rule:nonzero;"/>
        <path d="M619.22,57.259L619.22,64.308L620.647,64.308C621.249,64.308 621.715,64.221 622.046,64.046C622.375,63.871 622.618,63.628 622.773,63.318C622.929,63.027 623.021,62.667 623.051,62.24C623.079,61.813 623.094,61.337 623.094,60.813C623.094,60.328 623.084,59.866 623.065,59.429C623.046,58.993 622.958,58.609 622.803,58.279C622.647,57.949 622.414,57.696 622.103,57.521C621.793,57.346 621.346,57.259 620.763,57.259L619.22,57.259ZM616.249,75.203L616.249,54.462L620.705,54.462C621.521,54.462 622.239,54.569 622.861,54.783C623.482,54.996 624.045,55.375 624.551,55.918C625.055,56.463 625.405,57.099 625.599,57.827C625.793,58.555 625.89,59.541 625.89,60.784C625.89,61.715 625.837,62.502 625.73,63.143C625.623,63.784 625.395,64.386 625.046,64.949C624.638,65.629 624.094,66.158 623.415,66.537C622.734,66.915 621.842,67.105 620.734,67.105L619.22,67.105L619.22,75.203L616.249,75.203Z" style="fill:white;fill-rule:nonzero;"/>
        <path d="M631.075,57.259L631.075,63.726L632.764,63.726C633.289,63.726 633.707,63.653 634.017,63.507C634.328,63.362 634.571,63.153 634.746,62.881C634.901,62.609 635.008,62.274 635.066,61.876C635.124,61.478 635.153,61.017 635.153,60.493C635.153,59.968 635.124,59.507 635.066,59.109C635.008,58.711 634.891,58.366 634.717,58.075C634.347,57.531 633.648,57.259 632.619,57.259L631.075,57.259ZM628.104,75.203L628.104,54.462L632.882,54.462C636.377,54.462 638.125,56.492 638.125,60.55C638.125,61.774 637.935,62.813 637.556,63.667C637.178,64.522 636.513,65.211 635.561,65.736L638.765,75.203L635.619,75.203L632.852,66.347L631.075,66.347L631.075,75.203L628.104,75.203Z" style="fill:white;fill-rule:nonzero;"/>
        <path d="M643.309,70.309C643.309,71.028 643.509,71.557 643.907,71.896C644.305,72.237 644.775,72.406 645.319,72.406C645.863,72.406 646.334,72.237 646.732,71.896C647.13,71.557 647.33,71.028 647.33,70.309L647.33,59.356C647.33,58.638 647.13,58.109 646.732,57.769C646.334,57.429 645.863,57.259 645.319,57.259C644.775,57.259 644.305,57.429 643.907,57.769C643.509,58.109 643.309,58.638 643.309,59.356L643.309,70.309ZM640.339,59.356C640.339,58.522 640.484,57.784 640.775,57.142C641.066,56.501 641.455,55.967 641.94,55.54C642.407,55.132 642.935,54.822 643.528,54.608C644.12,54.394 644.718,54.287 645.319,54.287C645.922,54.287 646.518,54.394 647.111,54.608C647.703,54.822 648.242,55.132 648.727,55.54C649.194,55.967 649.572,56.501 649.864,57.142C650.155,57.784 650.301,58.522 650.301,59.356L650.301,70.309C650.301,71.183 650.155,71.93 649.864,72.552C649.572,73.173 649.194,73.688 648.727,74.096C648.242,74.523 647.703,74.843 647.111,75.057C646.518,75.27 645.922,75.377 645.319,75.377C644.718,75.377 644.12,75.27 643.528,75.057C642.935,74.843 642.407,74.523 641.94,74.096C641.455,73.688 641.066,73.173 640.775,72.552C640.484,71.93 640.339,71.183 640.339,70.309L640.339,59.356Z" style="fill:white;fill-rule:nonzero;"/>
        <path d="M652.748,59.356C652.748,58.522 652.893,57.784 653.184,57.142C653.475,56.501 653.864,55.967 654.349,55.54C654.816,55.132 655.345,54.822 655.937,54.608C656.529,54.394 657.127,54.287 657.728,54.287C658.331,54.287 658.928,54.394 659.52,54.608C660.112,54.822 660.651,55.132 661.137,55.54C661.603,55.967 661.981,56.501 662.273,57.142C662.564,57.784 662.71,58.522 662.71,59.356L662.71,60.405L659.739,60.405L659.739,59.356C659.739,58.638 659.539,58.109 659.141,57.769C658.743,57.429 658.272,57.259 657.728,57.259C657.184,57.259 656.714,57.429 656.316,57.769C655.918,58.109 655.719,58.638 655.719,59.356L655.719,70.309C655.719,71.028 655.918,71.557 656.316,71.896C656.714,72.237 657.184,72.406 657.728,72.406C658.272,72.406 658.743,72.237 659.141,71.896C659.539,71.557 659.739,71.028 659.739,70.309L659.739,66.406L657.379,66.406L657.379,63.784L662.71,63.784L662.71,70.309C662.71,71.183 662.564,71.93 662.273,72.552C661.981,73.173 661.603,73.688 661.137,74.096C660.651,74.523 660.112,74.843 659.52,75.057C658.928,75.27 658.331,75.377 657.728,75.377C657.127,75.377 656.529,75.27 655.937,75.057C655.345,74.843 654.816,74.523 654.349,74.096C653.864,73.688 653.475,73.173 653.184,72.552C652.893,71.93 652.748,71.183 652.748,70.309L652.748,59.356Z" style="fill:white;fill-rule:nonzero;"/>
        <path d="M668.302,57.259L668.302,63.726L669.991,63.726C670.515,63.726 670.933,63.653 671.244,63.507C671.555,63.362 671.798,63.153 671.972,62.881C672.128,62.609 672.234,62.274 672.293,61.876C672.35,61.478 672.38,61.017 672.38,60.493C672.38,59.968 672.35,59.507 672.293,59.109C672.234,58.711 672.118,58.366 671.943,58.075C671.574,57.531 670.875,57.259 669.846,57.259L668.302,57.259ZM665.331,75.203L665.331,54.462L670.108,54.462C673.603,54.462 675.351,56.492 675.351,60.55C675.351,61.774 675.162,62.813 674.783,63.667C674.404,64.522 673.739,65.211 672.788,65.736L675.992,75.203L672.846,75.203L670.079,66.347L668.302,66.347L668.302,75.203L665.331,75.203Z" style="fill:white;fill-rule:nonzero;"/>
        <path d="M683.74,67.95L682.284,60.434L682.225,60.434L680.769,67.95L683.74,67.95ZM676.4,75.203L681.031,54.462L683.508,54.462L688.138,75.203L685.168,75.203L684.294,70.745L680.245,70.745L679.371,75.203L676.4,75.203Z" style="fill:white;fill-rule:nonzero;"/>
        <path d="M689.596,75.203L689.596,54.462L692.45,54.462L696.265,65.445L696.324,65.445L700.111,54.462L702.995,54.462L702.995,75.203L700.023,75.203L700.023,62.589L699.966,62.589L697.023,71.503L695.538,71.503L692.625,62.589L692.566,62.589L692.566,75.203L689.596,75.203Z" style="fill:white;fill-rule:nonzero;"/>
    </g>
</svg>
